[Header]
FileType HTR
DataType HTRS
FileVersion 1
NumSegments 64
NumFrames 3
DataFrameRate 24
EulerRotationOrder ZYX
CalibrationUnits mm
RotationUnits Degrees
GlobalAxisofGravity Y
BoneLengthAxis Y
ScaleFactor 1.0
[SegmentNames&Hierarchy]
Hips	GLOBAL
Spine	Hips
Spine1	Spine
Spine2	Spine1
Neck	Spine2
Head	Neck
LeftEye	Head
RightEye	Head
LeftShoulder	Spine2
LeftArm	LeftShoulder
LeftForeArm	LeftArm
LeftHand	LeftForeArm
LeftHandThumb1	LeftHand
LeftHandThumb2	LeftHandThumb1
LeftHandThumb3	LeftHandThumb2
LeftHandThumb4	LeftHandThumb3
LeftHandIndex1	LeftHand
LeftHandIndex2	LeftHandIndex1
LeftHandIndex3	LeftHandIndex2
LeftHandIndex4	LeftHandIndex3
LeftHandMiddle1	LeftHand
LeftHandMiddle2	LeftHandMiddle1
LeftHandMiddle3	LeftHandMiddle2
LeftHandMiddle4	LeftHandMiddle3
LeftHandRing1	LeftHand
LeftHandRing2	LeftHandRing1
LeftHandRing3	LeftHandRing2
LeftHandRing4	LeftHandRing3
LeftHandPinky1	LeftHand
LeftHandPinky2	LeftHandPinky1
LeftHandPinky3	LeftHandPinky2
LeftHandPinky4	LeftHandPinky3
RightShoulder	Spine2
RightArm	RightShoulder
RightForeArm	RightArm
RightHand	RightForeArm
RightHandPinky1	RightHand
RightHandPinky2	RightHandPinky1
RightHandPinky3	RightHandPinky2
RightHandPinky4	RightHandPinky3
RightHandRing1	RightHand
RightHandRing2	RightHandRing1
RightHandRing3	RightHandRing2
RightHandRing4	RightHandRing3
RightHandMiddle1	RightHand
RightHandMiddle2	RightHandMiddle1
RightHandMiddle3	RightHandMiddle2
RightHandMiddle4	RightHandMiddle3
RightHandIndex1	RightHand
RightHandIndex2	RightHandIndex1
RightHandIndex3	RightHandIndex2
RightHandIndex4	RightHandIndex3
RightHandThumb1	RightHand
RightHandThumb2	RightHandThumb1
RightHandThumb3	RightHandThumb2
RightHandThumb4	RightHandThumb3
LeftUpLeg	Hips
LeftLeg	LeftUpLeg
LeftFoot	LeftLeg
LeftToeBase	LeftFoot
RightUpLeg	Hips
RightLeg	RightUpLeg
RightFoot	RightLeg
RightToeBase	RightFoot
[BasePosition]
Hips	0	0	0	0	0	0	1
Spine	0	0	0	0	0	0	1
Spine1	0	0	0	0	0	0	1
Spine2	0	0	0	0	0	0	1
Neck	0	0	0	0	0	0	1
Head	0	0	0	0	0	0	1
LeftEye	0	0	0	0	0	0	1
RightEye	0	0	0	0	0	0	1
LeftShoulder	0	0	0	0	0	0	1
LeftArm	0	0	0	0	0	0	1
LeftForeArm	0	0	0	0	0	0	1
LeftHand	0	0	0	0	0	0	1
LeftHandThumb1	0	0	0	0	0	0	1
LeftHandThumb2	0	0	0	0	0	0	1
LeftHandThumb3	0	0	0	0	0	0	1
LeftHandThumb4	0	0	0	0	0	0	1
LeftHandIndex1	0	0	0	0	0	0	1
LeftHandIndex2	0	0	0	0	0	0	1
LeftHandIndex3	0	0	0	0	0	0	1
LeftHandIndex4	0	0	0	0	0	0	1
LeftHandMiddle1	0	0	0	0	0	0	1
LeftHandMiddle2	0	0	0	0	0	0	1
LeftHandMiddle3	0	0	0	0	0	0	1
LeftHandMiddle4	0	0	0	0	0	0	1
LeftHandRing1	0	0	0	0	0	0	1
LeftHandRing2	0	0	0	0	0	0	1
LeftHandRing3	0	0	0	0	0	0	1
LeftHandRing4	0	0	0	0	0	0	1
LeftHandPinky1	0	0	0	0	0	0	1
LeftHandPinky2	0	0	0	0	0	0	1
LeftHandPinky3	0	0	0	0	0	0	1
LeftHandPinky4	0	0	0	0	0	0	1
RightShoulder	0	0	0	0	0	0	1
RightArm	0	0	0	0	0	0	1
RightForeArm	0	0	0	0	0	0	1
RightHand	0	0	0	0	0	0	1
RightHandPinky1	0	0	0	0	0	0	1
RightHandPinky2	0	0	0	0	0	0	1
RightHandPinky3	0	0	0	0	0	0	1
RightHandPinky4	0	0	0	0	0	0	1
RightHandRing1	0	0	0	0	0	0	1
RightHandRing2	0	0	0	0	0	0	1
RightHandRing3	0	0	0	0	0	0	1
RightHandRing4	0	0	0	0	0	0	1
RightHandMiddle1	0	0	0	0	0	0	1
RightHandMiddle2	0	0	0	0	0	0	1
RightHandMiddle3	0	0	0	0	0	0	1
RightHandMiddle4	0	0	0	0	0	0	1
RightHandIndex1	0	0	0	0	0	0	1
RightHandIndex2	0	0	0	0	0	0	1
RightHandIndex3	0	0	0	0	0	0	1
RightHandIndex4	0	0	0	0	0	0	1
RightHandThumb1	0	0	0	0	0	0	1
RightHandThumb2	0	0	0	0	0	0	1
RightHandThumb3	0	0	0	0	0	0	1
RightHandThumb4	0	0	0	0	0	0	1
LeftUpLeg	0	0	0	0	0	0	1
LeftLeg	0	0	0	0	0	0	1
LeftFoot	0	0	0	0	0	0	1
LeftToeBase	0	0	0	0	0	0	1
RightUpLeg	0	0	0	0	0	0	1
RightLeg	0	0	0	0	0	0	1
RightFoot	0	0	0	0	0	0	1
RightToeBase	0	0	0	0	0	0	1
[Hips]
9	-47.32238007	1006.638184	-6.699313164	-3.759796381	27.03417778	-6.266028404	1.0
10	-50.6239624	1006.179443	-19.90006828	-4.229289532	30.22550583	-6.586178303	1.0
11	-51.59860992	1006.461121	-34.77468491	-4.692642212	33.43772888	-6.857865334	1.0
[Spine]
9	0	101.8159943	1.315000057	1.679162502	3.972770452	1.452036262	1.0
10	0	101.8159943	1.315000057	1.727536798	4.282715797	1.350864053	1.0
11	0	101.8159943	1.315000057	1.671994925	4.238753796	1.398085833	1.0
[Spine1]
9	0	100.8349991	-10.00800037	1.506970286	6.802532196	4.185148716	1.0
10	0	100.8349991	-10.00800037	1.56292057	7.244677544	4.170631886	1.0
11	0	100.8349991	-10.00800037	1.557614446	7.304458618	4.301359177	1.0
[Spine2]
9	0	91	-13.73399925	2.015682936	7.240569115	4.040441036	1.0
10	0	91	-13.73399925	2.100197554	7.679240227	4.025073051	1.0
11	0	91	-13.73399925	2.099976301	7.740250111	4.155343533	1.0
[Neck]
9	0	166.7169952	-25.16200066	-0.4154684544	0.9096370339	-5.593943119	1.0
10	0	166.7169952	-25.16200066	-0.4315181077	1.808719397	-6.008474827	1.0
11	0	166.7169952	-25.16200066	-0.3851103485	2.766234159	-6.301106453	1.0
[Head]
9	0	96.17900085	16.84999847	-4.1203475	-3.283363104	-8.95984745	1.0
10	0	96.17900085	16.84999847	-5.227729797	-2.085172653	-9.783405304	1.0
11	0	96.17900085	16.84999847	-6.065264225	0.03879934177	-11.025033	1.0
[LeftEye]
9	30.6760006	64.09500122	92.83599854	0	0	0	1.0
10	30.6760006	64.09500122	92.83599854	0	0	0	1.0
11	30.6760006	64.09500122	92.83599854	0	0	0	1.0
[RightEye]
9	-30.6760006	64.09500122	92.83499908	0	0	0	1.0
10	-30.6760006	64.09500122	92.83499908	0	0	0	1.0
11	-30.6760006	64.09500122	92.83499908	0	0	0	1.0
[LeftShoulder]
9	45.70400238	109.4599991	-26.28000069	5.332640648	-13.2566576	-7.993739128	1.0
10	45.70400238	109.4599991	-26.28000069	5.234963894	-13.74639797	-7.621295452	1.0
11	45.70400238	109.4599991	-26.28000069	5.165413857	-14.17050648	-7.368445873	1.0
[LeftArm]
9	105.923996	-5.24600029	-22.32099915	-15.26712322	4.221633911	-81.84596252	1.0
10	105.923996	-5.24600029	-22.32099915	-16.07384682	4.624924183	-82.71491241	1.0
11	105.923996	-5.24600029	-22.32099915	-16.13140678	5.25878191	-83.73067474	1.0
[LeftForeArm]
9	278.414978	-0.0009999999311	0	2.922271051e-06	-22.25860023	-0.000209717371	1.0
10	278.414978	-0.0009999999311	0	1.265560968e-06	-22.11073112	-0.0002139175485	1.0
11	278.414978	-0.0009999999311	0	-1.842645702e-06	-20.76258469	-0.0001920397772	1.0
[LeftHand]
9	283.2879944	0	0	-29.943964	-14.40309811	0.7183848619	1.0
10	283.2879944	0	0	-29.34562492	-14.12451935	0.01491528004	1.0
11	283.2879944	0	0	-28.03013039	-12.92486286	-1.96182251	1.0
[LeftHandThumb1]
9	24.6609993	-15.75	26.8239994	16.67660904	-6.838207245	10.71700287	1.0
10	24.6609993	-15.75	26.8239994	16.68501472	-6.574186802	10.74964523	1.0
11	24.6609993	-15.75	26.8239994	16.6746273	-6.305310249	10.77674484	1.0
[LeftHandThumb2]
9	32.29800034	-18.64699936	18.64699936	-0.3901114762	33.18916321	-2.342643976	1.0
10	32.29800034	-18.64699936	18.64699936	-0.4081521332	33.19935226	-2.44231987	1.0
11	32.29800034	-18.64699936	18.64699936	-0.428853482	33.2208519	-2.553994179	1.0
[LeftHandThumb3]
9	26.52600098	-15.31499958	15.31499958	2.067824125	9.391072273	1.350889325	1.0
10	26.52600098	-15.31499958	15.31499958	2.067438364	9.355338097	1.314697623	1.0
11	26.52600098	-15.31499958	15.31499958	2.066439152	9.305372238	1.290108204	1.0
[LeftHandThumb4]
9	19.54599953	-11.28499985	11.28499985	0	0	0	1.0
10	19.54599953	-11.28499985	11.28499985	0	0	0	1.0
11	19.54599953	-11.28499985	11.28499985	0	0	0	1.0
[LeftHandIndex1]
9	91.09299469	-5.170999527	22.60099792	-0.3920769691	4.745975018	-8.750041962	1.0
10	91.09299469	-5.170999527	22.60099792	-0.373290509	4.755357742	-8.651329041	1.0
11	91.09299469	-5.170999527	22.60099792	-0.3491930068	4.76981163	-8.534765244	1.0
[LeftHandIndex2]
9	36.76399994	0	0	-0.6252146959	2.76482296	-20.51032257	1.0
10	36.76399994	0	0	-0.6264086962	2.767034531	-20.53497124	1.0
11	36.76399994	0	0	-0.6263262033	2.766933918	-20.53367233	1.0
[LeftHandIndex3]
9	28.83100128	0	0	-0.1086313054	0.7993489504	-10.10801506	1.0
10	28.83100128	0	0	-0.1090653688	0.8017881513	-10.13261509	1.0
11	28.83100128	0	0	-0.1090401933	0.8016517758	-10.13132668	1.0
[LeftHandIndex4]
9	23.92700005	0	0	0	0	0	1.0
10	23.92700005	0	0	0	0	0	1.0
11	23.92700005	0	0	0	0	0	1.0
[LeftHandMiddle1]
9	95.33399963	0	0	-1.559296012	8.422046661	-16.21526718	1.0
10	95.33399963	0	0	-1.554487109	8.46002388	-16.1719799	1.0
11	95.33399963	0	0	-1.550332546	8.509395599	-16.13344193	1.0
[LeftHandMiddle2]
9	36.98199844	0	0	-1.43828702	3.83568716	-33.58349609	1.0
10	36.98199844	0	0	-1.436190367	3.833443403	-33.55326843	1.0
11	36.98199844	0	0	-1.43424511	3.831323385	-33.52478409	1.0
[LeftHandMiddle3]
9	29.50900078	0	0	-0.1527517885	1.501238465	-12.42585373	1.0
10	29.50900078	0	0	-0.1520733237	1.498385906	-12.39638901	1.0
11	29.50900078	0	0	-0.1514260322	1.495701075	-12.3687706	1.0
[LeftHandMiddle4]
9	28.3390007	0	0	0	0	0	1.0
10	28.3390007	0	0	0	0	0	1.0
11	28.3390007	0	0	0	0	0	1.0
[LeftHandRing1]
9	91.04499817	-0.4390000105	-18.65100098	-3.061704636	11.40762234	-27.30607605	1.0
10	91.04499817	-0.4390000105	-18.65100098	-3.052796364	11.40676498	-27.23808289	1.0
11	91.04499817	-0.4390000105	-18.65100098	-3.047296286	11.42088032	-27.19047165	1.0
[LeftHandRing2]
9	31.54000092	0	0	-1.202331185	4.061698914	-40.28116226	1.0
10	31.54000092	0	0	-1.201543808	4.060668468	-40.26789856	1.0
11	31.54000092	0	0	-1.200307727	4.059127808	-40.24782944	1.0
[LeftHandRing3]
9	29.37700081	0	0	-0.09404277802	1.910730124	-19.41394997	1.0
10	29.37700081	0	0	-0.09372279793	1.909464955	-19.40086746	1.0
11	29.37700081	0	0	-0.09326003492	1.907574415	-19.38128662	1.0
[LeftHandRing4]
9	26.47500038	0	0	0	0	0	1.0
10	26.47500038	0	0	0	0	0	1.0
11	26.47500038	0	0	0	0	0	1.0
[LeftHandPinky1]
9	80.77799988	-4.887000084	-38.06099701	-5.290805817	16.08272171	-37.53237152	1.0
10	80.77799988	-4.887000084	-38.06099701	-5.291437149	16.11850739	-37.48817444	1.0
11	80.77799988	-4.887000084	-38.06099701	-5.296056271	16.16051483	-37.46648788	1.0
[LeftHandPinky2]
9	36	0	0	-1.935150981	3.808350801	-45.52397537	1.0
10	36	0	0	-1.935348988	3.808540821	-45.52639389	1.0
11	36	0	0	-1.935706019	3.808856726	-45.53123093	1.0
[LeftHandPinky3]
9	21.14200211	0	0	-0.5373950005	2.821194887	-20.38854599	1.0
10	21.14200211	0	0	-0.5374934077	2.821421862	-20.39094734	1.0
11	21.14200211	0	0	-0.5377035737	2.821857214	-20.39575577	1.0
[LeftHandPinky4]
9	19.75699997	0	0	0	0	0	1.0
10	19.75699997	0	0	0	0	0	1.0
11	19.75699997	0	0	0	0	0	1.0
[RightShoulder]
9	-45.70000076	109.4620056	-26.28000069	4.61398077	5.162718773	3.428405285	1.0
10	-45.70000076	109.4620056	-26.28000069	4.589093208	5.401724339	3.188532352	1.0
11	-45.70000076	109.4620056	-26.28000069	4.586239815	5.290350437	3.122139215	1.0
[RightArm]
9	-105.9280014	-5.248000145	-22.32099915	-0.7581812143	-6.205707073	70.48012543	1.0
10	-105.9280014	-5.248000145	-22.32099915	-0.7321756482	-6.294604778	70.71115875	1.0
11	-105.9280014	-5.248000145	-22.32099915	-0.6374733448	-5.887843132	70.55872345	1.0
[RightForeArm]
9	-278.414978	0	0	4.03625927e-06	13.08760834	5.009553661e-06	1.0
10	-278.414978	0	0	5.268908353e-06	13.29521179	-2.425011871e-06	1.0
11	-278.414978	0	0	-1.847881867e-05	13.86376762	2.47920002e-06	1.0
[RightHand]
9	-283.2879944	0	0.0009999999311	-10.70383644	-13.43592548	12.05080128	1.0
10	-283.2879944	0	0.0009999999311	-10.72004986	-13.22891045	12.29559231	1.0
11	-283.2879944	0	0.0009999999311	-10.94927216	-12.30250454	12.44056129	1.0
[RightHandPinky1]
9	-80.76699829	-4.885000229	-38.06000137	-5.144366264	-16.35392952	36.22019958	1.0
10	-80.76699829	-4.885000229	-38.06000137	-5.159243107	-16.27218056	36.37445831	1.0
11	-80.76699829	-4.885000229	-38.06000137	-5.17966938	-16.14481926	36.59401321	1.0
[RightHandPinky2]
9	-36	0	0.0009999999311	-1.941581964	-3.813528776	45.62812424	1.0
10	-36	0	0.0009999999311	-1.94204247	-3.813936472	45.63418579	1.0
11	-36	0	0.0009999999311	-1.942527175	-3.81434226	45.64044571	1.0
[RightHandPinky3]
9	-21.14200211	0	0	-0.7638558149	0.05788993463	22.08914948	1.0
10	-21.14200211	0	0	-0.764116168	0.05735889077	22.09519005	1.0
11	-21.14200211	0	0	-0.7644020319	0.05680054054	22.10142136	1.0
[RightHandPinky4]
9	-19.75699997	0	0	0	0	0	1.0
10	-19.75699997	0	0	0	0	0	1.0
11	-19.75699997	0	0	0	0	0	1.0
[RightHandRing1]
9	-91.03599548	-0.4390000105	-18.65100098	-2.953867912	-11.60857487	26.40242386	1.0
10	-91.03599548	-0.4390000105	-18.65100098	-2.972771883	-11.5881834	26.55579376	1.0
11	-91.03599548	-0.4390000105	-18.65100098	-2.998122692	-11.55924511	26.76188087	1.0
[RightHandRing2]
9	-31.54000092	0	0	-1.200798035	-4.059446812	40.25881577	1.0
10	-31.54000092	0	0	-1.201710582	-4.06063652	40.27388382	1.0
11	-31.54000092	0	0	-1.202197075	-4.06125164	40.2817421	1.0
[RightHandRing3]
9	-29.37700081	0	0	-0.1395765692	0.08423958719	17.87488556	1.0
10	-29.37700081	0	0	-0.1398634166	0.08289119601	17.8889637	1.0
11	-29.37700081	0	0	-0.1400066316	0.08223057538	17.89554596	1.0
[RightHandRing4]
9	-26.47500038	0	0	0	0	0	1.0
10	-26.47500038	0	0	0	0	0	1.0
11	-26.47500038	0	0	0	0	0	1.0
[RightHandMiddle1]
9	-95.32500458	0	0	-1.43907392	-8.603826523	15.19416523	1.0
10	-95.32500458	0	0	-1.465099216	-8.611219406	15.4123764	1.0
11	-95.32500458	0	0	-1.496253252	-8.636967659	15.67150784	1.0
[RightHandMiddle2]
9	-36.98199844	0	0	-1.424632788	-3.820684195	33.38711929	1.0
10	-36.98199844	0	0	-1.42610395	-3.822227001	33.40821075	1.0
11	-36.98199844	0	0	-1.428699613	-3.825053453	33.44594955	1.0
[RightHandMiddle3]
9	-29.50900078	0	0	-0.2525563836	-1.675266743	15.86813164	1.0
10	-29.50900078	0	0	-0.2531538308	-1.677253962	15.88894176	1.0
11	-29.50900078	0	0	-0.2542449534	-1.680840731	15.92675209	1.0
[RightHandMiddle4]
9	-28.3390007	0	0.0009999999311	0	0	0	1.0
10	-28.3390007	0	0.0009999999311	0	0	0	1.0
11	-28.3390007	0	0.0009999999311	0	0	0	1.0
[RightHandIndex1]
9	-91.08300018	-5.167999744	22.60099792	-0.2003499717	-4.746934414	7.168522835	1.0
10	-91.08300018	-5.167999744	22.60099792	-0.2278587073	-4.74253273	7.378978252	1.0
11	-91.08300018	-5.167999744	22.60099792	-0.2571317255	-4.760595798	7.638643265	1.0
[RightHandIndex2]
9	-36.76399994	0	0	-0.6271096468	-2.768148422	20.55067444	1.0
10	-36.76399994	0	0	-0.6274047494	-2.768750668	20.55710411	1.0
11	-36.76399994	0	0	-0.6268157363	-2.767640829	20.54478455	1.0
[RightHandIndex3]
9	-28.83100128	0	0	-0.2379713506	-0.1552852541	13.82224083	1.0
10	-28.83100128	0	0	-0.2381190956	-0.1558956653	13.82870007	1.0
11	-28.83100128	0	0	-0.2378366739	-0.1547055244	13.81637287	1.0
[RightHandIndex4]
9	-23.92700005	0	0	0	0	0	1.0
10	-23.92700005	0	0	0	0	0	1.0
11	-23.92700005	0	0	0	0	0	1.0
[RightHandThumb1]
9	-24.64799881	-15.72700024	26.82600021	18.59051323	3.044499636	-10.39571667	1.0
10	-24.64799881	-15.72700024	26.82600021	18.48502541	3.207502604	-10.3713274	1.0
11	-24.64799881	-15.72700024	26.82600021	18.31828308	3.516996622	-10.29756832	1.0
[RightHandThumb2]
9	-32.29800034	-18.64699936	18.64699936	-0.03050941974	-32.22664642	2.499789953	1.0
10	-32.29800034	-18.64699936	18.64699936	-0.09634239972	-32.35483551	2.572503805	1.0
11	-32.29800034	-18.64699936	18.64699936	-0.2385684997	-32.54777908	2.691476345	1.0
[RightHandThumb3]
9	-26.52600098	-15.31399918	15.31399918	1.903187513	-8.585661888	0.8627150655	1.0
10	-26.52600098	-15.31399918	15.31399918	1.902564287	-8.583669662	0.8621453643	1.0
11	-26.52600098	-15.31399918	15.31399918	1.900331259	-8.576339722	0.8601405025	1.0
[RightHandThumb4]
9	-19.54599953	-11.28499985	11.28499985	0	0	0	1.0
10	-19.54599953	-11.28499985	11.28499985	0	0	0	1.0
11	-19.54599953	-11.28499985	11.28499985	0	0	0	1.0
[LeftUpLeg]
9	82.07800293	-67.51699829	-15.99599934	-24.99050713	15.67185593	11.1217556	1.0
10	82.07800293	-67.51699829	-15.99599934	-24.81910324	17.60863686	12.27361107	1.0
11	82.07800293	-67.51699829	-15.99599934	-22.63397408	20.32436371	14.26972771	1.0
[LeftLeg]
9	0	-443.7049866	2.845999956	28.58941841	-4.724279404	-3.934523344	1.0
10	0	-443.7049866	2.845999956	33.17108536	-3.814401388	-7.208213806	1.0
11	0	-443.7049866	2.845999956	36.32181549	-0.6042880416	-9.450811386	1.0
[LeftFoot]
9	0	-444.2789917	-29.8219986	-2.128011227	18.53075409	-1.903574467	1.0
10	0	-444.2789917	-29.8219986	-9.122087479	24.64262962	-0.2052240521	1.0
11	0	-444.2789917	-29.8219986	-16.54770279	26.65752602	0.5789820552	1.0
[LeftToeBase]
9	0	-87.28699493	107.1060028	-5.858412743	1.32593641e-05	-2.289258191e-06	1.0
10	0	-87.28699493	107.1060028	0.4715779424	1.751566742e-05	9.912345149e-07	1.0
11	0	-87.28699493	107.1060028	12.83405304	1.439773587e-05	4.781231382e-06	1.0
[RightUpLeg]
9	-82.07800293	-67.51699829	-15.99599934	-6.844390392	-6.51971817	16.47386551	1.0
10	-82.07800293	-67.51699829	-15.99599934	-8.486498833	-6.071201324	16.96829224	1.0
11	-82.07800293	-67.51699829	-15.99599934	-10.02080536	-5.76098299	16.94186592	1.0
[RightLeg]
9	0	-443.7049866	2.861999989	12.68516636	-10.04965115	-0.6967718005	1.0
10	0	-443.7049866	2.861999989	13.43968582	-9.913631439	-1.695255637	1.0
11	0	-443.7049866	2.861999989	14.0402689	-9.625088692	-2.367269754	1.0
[RightFoot]
9	0	-444.2770081	-29.83799934	-8.434873581	-19.6254425	-8.464017868	1.0
10	0	-444.2770081	-29.83799934	-7.561260223	-23.09757233	-7.988696575	1.0
11	0	-444.2770081	-29.83799934	-6.543206215	-26.60013008	-7.531185627	1.0
[RightToeBase]
9	0	-87.28699493	107.1060028	-0.5214367509	-2.747706503e-06	3.491306188e-06	1.0
10	0	-87.28699493	107.1060028	-0.5215841532	5.355399935e-06	5.8170491e-07	1.0
11	0	-87.28699493	107.1060028	-0.5237790942	2.607721399e-06	-6.821881584e-07	1.0
[EndOfFile]
